<?xml version="1.0" standalone="no"?>
<!DOCTYPE svg PUBLIC "-//W3C//DTD SVG 20010904//EN"
 "http://www.w3.org/TR/2001/REC-SVG-20010904/DTD/svg10.dtd">
<svg version="1.0" xmlns="http://www.w3.org/2000/svg"
 width="400.000000pt" height="400.000000pt" viewBox="0 0 400.000000 400.000000"
 preserveAspectRatio="xMidYMid meet">
<metadata>
Created by potrace 1.11, written by Peter Selinger 2001-2013
</metadata>
<g transform="translate(0.000000,400.000000) scale(0.100000,-0.100000)"
fill="#000000" stroke="none">
<path d="M2127 2874 c-1 -1 -47 -4 -102 -8 -107 -7 -203 -24 -275 -51 -25 -9
-88 -31 -140 -50 -52 -19 -120 -43 -151 -54 -54 -20 -84 -27 -144 -37 -16 -3
-36 -7 -44 -10 -15 -5 -107 -12 -261 -19 -58 -2 -114 -6 -125 -8 -11 -3 -42
-8 -68 -11 -78 -12 -89 -15 -207 -51 -3 -1 -18 -7 -35 -14 -16 -7 -32 -13 -35
-14 -3 -1 -23 -12 -45 -24 -22 -13 -55 -30 -73 -38 -38 -18 -38 -22 -13 -78
44 -97 41 -204 -7 -246 -22 -19 -30 -37 -12 -26 6 4 16 2 23 -4 23 -19 136
-38 253 -44 51 -2 51 -2 37 20 -9 13 -12 23 -8 23 4 0 1 7 -6 17 -10 11 -14
45 -14 112 0 85 3 102 27 147 56 107 166 174 287 176 63 1 88 -5 148 -34 63
-31 141 -115 144 -155 0 -5 5 -13 11 -20 20 -24 22 -156 3 -214 -10 -30 -21
-58 -26 -63 -12 -14 -11 -29 1 -21 6 4 23 9 38 11 15 3 61 12 102 21 120 24
115 24 350 40 138 10 747 9 874 -1 93 -7 98 -7 90 11 -4 10 -9 55 -10 99 -1
69 3 90 24 135 41 85 102 143 187 175 34 12 48 14 110 14 73 1 115 -11 169
-47 116 -76 165 -191 144 -335 l-6 -38 40 0 c34 0 39 3 33 18 -21 52 -14 69
65 159 62 70 134 200 145 264 l7 36 -84 17 c-46 9 -91 19 -100 21 -10 3 -27 7
-39 10 -11 2 -28 6 -37 9 -9 3 -30 8 -47 11 -16 2 -40 7 -52 10 -59 13 -159
34 -199 41 -16 3 -56 11 -89 19 -33 7 -82 16 -110 20 -27 4 -59 9 -70 10 -11
2 -47 8 -80 14 -67 12 -111 18 -200 26 -33 4 -66 8 -73 10 -15 5 -320 23 -325
19z m301 -39 c24 -3 68 -8 96 -11 94 -10 224 -28 311 -44 28 -5 67 -12 87 -14
21 -3 59 -11 85 -17 27 -6 57 -12 68 -14 11 -1 20 -3 20 -5 0 -1 11 -3 25 -4
14 -2 61 -11 105 -21 44 -9 89 -19 100 -21 99 -19 205 -48 205 -56 0 -6 -17
-7 -42 -3 -84 13 -94 14 -143 20 -27 3 -63 7 -80 9 -16 2 -64 7 -105 10 -41 4
-95 9 -120 11 -122 13 -400 28 -482 27 -32 -1 -55 -7 -68 -20 -47 -44 -79 -46
-587 -47 -266 0 -483 3 -483 7 0 5 23 16 50 23 3 1 16 6 30 12 289 123 360
146 495 159 33 4 61 7 63 9 5 5 324 -4 370 -10z"/>
<path d="M969 2546 c-2 -3 -17 -6 -34 -8 -76 -10 -170 -87 -202 -167 -25 -60
-24 -161 2 -215 23 -48 90 -118 130 -135 17 -7 30 -13 30 -13 0 0 22 -5 50
-12 107 -28 243 43 294 154 48 103 30 219 -47 305 -33 36 -89 71 -128 79 -57
11 -91 16 -95 12z"/>
<path d="M2990 2543 c-14 -2 -32 -7 -40 -10 -8 -4 -17 -7 -20 -7 -16 -4 -89
-50 -87 -56 1 -3 -10 -17 -25 -31 -38 -34 -65 -112 -63 -180 3 -109 78 -210
184 -249 54 -21 137 -25 171 -9 73 34 95 49 123 79 104 114 101 271 -7 382
-59 61 -152 92 -236 81z"/>
<path d="M670 1859 c-191 -67 -295 -302 -193 -437 39 -52 95 -75 188 -75 136
-2 170 10 179 61 11 70 10 73 -26 57 -67 -27 -158 -22 -197 11 -38 31 -50 74
-39 134 25 136 164 201 310 145 12 -5 18 6 26 47 5 29 9 55 7 56 -2 2 -21 8
-42 13 -57 14 -156 8 -213 -12z"/>
<path d="M1017 1616 c-81 -140 -147 -257 -147 -260 0 -3 31 -6 68 -6 l68 0 28
58 28 59 98 1 98 1 7 -42 c12 -77 10 -75 80 -76 77 0 75 -6 45 141 -11 54 -21
108 -24 120 -2 13 -14 76 -26 141 l-23 117 -76 0 -76 0 -148 -254z m218 24 c3
-20 7 -45 9 -57 4 -19 -1 -22 -42 -25 -97 -8 -97 -9 -39 102 l52 98 7 -41 c4
-22 10 -57 13 -77z"/>
<path d="M1575 1848 c-6 -26 -14 -71 -20 -108 -2 -14 -13 -72 -24 -130 -11
-58 -23 -118 -26 -135 -13 -73 -16 -91 -21 -106 -4 -13 6 -16 60 -17 l65 -1
11 52 c5 29 14 72 18 97 6 37 12 46 31 48 34 5 55 -20 97 -114 l37 -84 74 0
c40 0 73 2 73 5 0 18 -93 184 -114 204 l-26 24 38 17 c75 35 113 94 108 167
-6 80 -52 100 -238 102 -136 2 -137 2 -143 -21z m229 -84 c49 -49 -13 -124
-103 -124 l-39 0 8 33 c4 17 11 49 15 70 6 37 6 37 55 37 31 0 54 -6 64 -16z"/>
<path d="M2095 1858 c-5 -15 -42 -215 -51 -273 -3 -22 -7 -42 -9 -45 -2 -3 -6
-26 -10 -50 -3 -25 -10 -63 -15 -85 -5 -22 -10 -44 -10 -48 0 -4 69 -6 153 -4
147 3 155 4 201 31 51 30 82 72 92 125 9 46 -18 96 -60 111 l-31 11 43 25
c100 60 97 175 -5 203 -56 16 -293 14 -298 -1z m222 -93 c19 -13 20 -19 11
-45 -12 -35 -47 -55 -102 -59 l-39 -3 7 44 c7 37 13 67 15 76 3 9 91 -1 108
-13z m-21 -210 c32 -21 21 -69 -22 -95 -40 -25 -131 -25 -126 -1 2 8 5 32 8
55 3 23 12 46 21 53 18 14 90 7 119 -12z"/>
<path d="M2675 1749 c-38 -67 -81 -140 -94 -163 -13 -22 -44 -77 -70 -121 -71
-120 -71 -114 5 -114 70 0 71 1 114 82 l17 32 97 2 c53 0 96 -2 97 -5 14 -116
10 -111 90 -111 61 0 69 3 65 17 -4 15 -17 80 -31 152 -3 14 -14 72 -25 130
-11 58 -22 116 -25 130 -3 14 -8 40 -11 58 l-6 32 -77 0 -76 0 -70 -121z m129
-34 c4 -22 9 -53 11 -70 16 -96 20 -87 -45 -87 -11 0 -33 0 -49 1 l-29 1 38
69 c21 38 44 83 51 100 7 16 14 29 15 28 1 -1 5 -20 8 -42z"/>
<path d="M3040 1865 c0 -3 25 -79 55 -168 l55 -163 -15 -80 c-21 -110 -24
-104 44 -104 68 0 63 -7 85 112 14 72 20 83 113 210 54 73 109 148 122 166
l22 32 -68 0 -68 0 -72 -111 c-68 -104 -73 -109 -79 -82 -3 15 -16 64 -28 108
l-22 80 -72 3 c-40 2 -72 0 -72 -3z"/>
</g>
</svg>
